# xmcd
#
# Track frame offsets: 
#        150
#        16928
#        39980
#        55827
#        79753
#        96373
#        117938
#        133748
#        152274
#        167834
#        183810
#        202401
#        217721
#        239226
#
# Disc length: 3627 seconds
#
# Revision: 3
# Processed by: cddbd v1.5.2PL0 Copyright (c) Steve Scherf et al.
# Submitted via: ExactAudioCopy v1.3
#
DISCID=b90e290e
DTITLE=Various Artist - Blues Revue sampler, Feb-Mar 2010
DYEAR=2010
DGENRE=Blues
TTITLE0=The Manish Boys - Searchin' blues
TTITLE1=Nick Moss and The Flip Tops - Mistakes from the past
TTITLE2=Otis Taylor - My soul's in Louisiana
TTITLE3=Koko Taylor - Bad avenue
TTITLE4=Quintus McCormic Blues Band - Hey Jodie! (Take good care of my
TTITLE4=baby
TTITLE5=Al Basile - You showed me something
TTITLE6=The Charles Walker Band - Life is now
TTITLE7=Mike Zito - 39 Days
TTITLE8=Samuel James - Bigger, blacker Ben
TTITLE9=Sean Chambers - 10 til midnight
TTITLE10=Fiona Boyes - Got my eye on you
TTITLE11=Jimmy "Duck" Holmes - All night long
TTITLE12=Boogie Bone - Where's my lady
TTITLE13=Jack Bruse, Robin Trower and Gary Husband - White room
EXTD=New Sampler compilations delivered free with subscription to Blue
EXTD=s Revue magazine seveal times a year.  see - www.bluesrevue
EXTT0=
EXTT1=
EXTT2=
EXTT3=
EXTT4=
EXTT5=
EXTT6=
EXTT7=
EXTT8=
EXTT9=
EXTT10=
EXTT11=
EXTT12=
EXTT13=
PLAYORDER=
